
        <svg xmlns="http://www.w3.org/2000/svg" xmlns:xlink="http://www.w3.org/1999/xlink" version="1.1" width="3185.7585139318885" height="1095.9752321981425" viewBox="0 0 3185.7585139318885 1095.9752321981425">
			
			<g transform="scale(9.287925696594428) translate(10, 10)">
				<defs id="SvgjsDefs5890"/><g id="SvgjsG5891" featureKey="symbolContainer" transform="matrix(1,0,0,1,0,0)" fill="#000">    <path xmlns="http://www.w3.org/2000/svg" fill-rule="nonzero" d="             M0,0             H103             V98             H0,0             z             M4,4             v90             h95             v-90             z     "/></g><g id="SvgjsG5892" featureKey="symbolFeature-0" transform="matrix(0.8571311831474304,0,0,0.8571311831474304,9.143352068068719,6.144537332875327)" fill="#000"><g xmlns="http://www.w3.org/2000/svg"><path d="M86.834,90.834H33.166c-2.209,0-4-1.791-4-4V61.5c0-0.977,0.357-1.92,1.005-2.651l16.834-19.016   c1.465-1.655,3.991-1.807,5.646-0.344c1.654,1.464,1.808,3.992,0.344,5.646L37.166,63.017v19.817h45.668V56.69L49.976,19.206   L16.152,57.163c-1.469,1.649-3.998,1.796-5.647,0.325c-1.649-1.47-1.795-3.998-0.325-5.647l36.834-41.336   c0.763-0.856,1.816-1.368,3.002-1.339c1.147,0.005,2.236,0.501,2.992,1.363l36.834,42.02c0.64,0.729,0.992,1.667,0.992,2.637   v31.648C90.834,89.043,89.043,90.834,86.834,90.834z"/></g><g xmlns="http://www.w3.org/2000/svg"><path d="M86.834,90.834H33.166c-2.209,0-4-1.791-4-4V61.5c0-0.977,0.357-1.92,1.005-2.651l16.834-19.016   c1.465-1.655,3.991-1.807,5.646-0.344c1.654,1.464,1.808,3.992,0.344,5.646L37.166,63.017v19.817h45.668V56.69L49.976,19.206   L16.152,57.163c-1.469,1.649-3.998,1.796-5.647,0.325c-1.649-1.47-1.795-3.998-0.325-5.647l36.834-41.336   c0.763-0.856,1.816-1.368,3.002-1.339c1.147,0.005,2.236,0.501,2.992,1.363l36.834,42.02c0.64,0.729,0.992,1.667,0.992,2.637   v31.648C90.834,89.043,89.043,90.834,86.834,90.834z"/></g></g><g id="SvgjsG5893" featureKey="nameFeature-0" transform="matrix(0.682780385017395,0,0,0.682780385017395,121.90755135608003,33.01884425853848)" fill="#000"><path d="M1.6 40 l0 -31.2 l8.04 0 l9 21.36 l9.04 -21.36 l8.04 0 l0 31.2 l-7.96 0 l0 -14.68 l-6.48 14.68 l-5.24 0 l-6.48 -14.68 l0 14.68 l-7.96 0 z M38.92 12.399999999999999 c0 1.88 1.52 3.56 3.64 3.56 c2.08 0 3.68 -1.68 3.68 -3.56 c0 -1.84 -1.6 -3.64 -3.68 -3.64 c-2.12 0 -3.64 1.8 -3.64 3.64 z M39.32 16.84 l0 23.16 l6.48 0 l0 -23.16 l-6.48 0 z M49.440000000000005 40.04 l6.48 0 l0 -6.8 l1.04 -1.16 l5.84 7.92 l7.92 0 l-9.4 -12.68 l9.88 -10.52 l-8.24 0 l-7.12 7.72 l0 -15.72 l-6.36 0 z M69.32000000000001 28.32 c0 6.28 5.32 11.68 12.08 11.68 c2.04 0 3.96 -0.44 5.72 -1.32 l0 1.32 l6.36 0 l-0.04 -23.12 l-6.48 0 l0 1.04 c-1.72 -0.84 -3.6 -1.24 -5.56 -1.24 c-6.76 0 -12.08 5.4 -12.08 11.64 z M85.4 32.28 c-1.08 1.04 -2.4 1.64 -4 1.64 c-3.16 0 -5.6 -2.64 -5.6 -5.6 c0 -2.92 2.44 -5.56 5.6 -5.56 c1.6 0 2.92 0.56 4 1.6 c0.68 0.68 1.56 2.12 1.56 2.96 l0 2.04 c0 0.84 -0.88 2.2 -1.56 2.92 z M96.72000000000001 32.96 c0 5.6 7.08 7.04 11.4 7.04 c4.28 0 10.68 -1.4 10.68 -6.8 c0 -1.64 -0.48 -2.44 -1.44 -3.64 c-0.8 -1.04 -2 -1.8 -3.12 -2.36 c-0.84 -0.44 -1.76 -0.8 -2.68 -1.08 c-0.92 -0.32 -1.84 -0.56 -2.72 -0.88 c-0.48 -0.16 -1.08 -0.32 -1.72 -0.56 c-0.6 -0.2 -1.2 -0.4 -1.56 -0.6 c-0.2 -0.12 -0.4 -0.24 -0.56 -0.36 s-0.2 -0.24 -0.2 -0.36 c0 -0.32 0.32 -0.6 0.96 -0.84 c0.64 -0.2 1.36 -0.28 1.8 -0.28 c0.68 0 1.6 0.16 2.36 0.48 c0.76 0.36 1.24 0.84 1.24 1.48 l0 1.04 l7.28 -0.04 l0 -1.12 c0 -2.36 -1.28 -4.08 -3.2 -5.36 c-2.36 -1.52 -5.04 -2 -7.8 -2 c-4.32 0 -10.52 1.8 -10.52 7.08 c0 0.92 0.24 1.8 0.72 2.6 c0.4 0.64 0.92 1.36 1.56 1.88 c1.32 1.04 3.32 1.88 4.92 2.4 c0.84 0.28 1.76 0.48 2.6 0.8 c0.48 0.16 1.12 0.32 1.76 0.52 c0.64 0.24 1.2 0.44 1.64 0.64 c0.44 0.24 0.72 0.52 0.72 0.84 c0 0.36 -0.28 0.6 -1 0.8 c-0.64 0.16 -1.4 0.16 -1.84 0.16 c-1 0 -2.28 -0.12 -3.04 -0.56 c-0.24 -0.12 -0.48 -0.32 -0.68 -0.52 s-0.32 -0.36 -0.32 -0.52 l-0.04 -1.4 l-7.24 0 l0 0.16 c0.04 0.44 0.04 0.88 0.04 1.36 z M120.32 28.32 c0 6.28 5.32 11.68 12.08 11.68 c2.04 0 3.96 -0.44 5.72 -1.32 l0 1.32 l6.36 0 l-0.04 -23.12 l-6.48 0 l0 1.04 c-1.72 -0.84 -3.6 -1.24 -5.56 -1.24 c-6.76 0 -12.08 5.4 -12.08 11.64 z M136.4 32.28 c-1.08 1.04 -2.4 1.64 -4 1.64 c-3.16 0 -5.6 -2.64 -5.6 -5.6 c0 -2.92 2.44 -5.56 5.6 -5.56 c1.6 0 2.92 0.56 4 1.6 c0.68 0.68 1.56 2.12 1.56 2.96 l0 2.04 c0 0.84 -0.88 2.2 -1.56 2.92 z M161.67999999999998 40 l0 -31.2 l6.8 0 l13.92 17.44 l0 -17.44 l7.96 0 l0 31.2 l-6.76 0 l-13.92 -17.4 l0 17.4 l-8 0 z M196.67999999999998 36.72 c2.28 2.44 5.36 3.28 8.72 3.28 c1.8 0 3.68 -0.28 5.36 -1 l0 1 l6.48 0 l0 -23.2 l-7.12 0 l0 11.2 c0 3.12 -1.32 5.16 -4.72 5.16 c-3.44 0 -4.68 -2.08 -4.68 -5.16 l0 -11.2 l-7.16 0 l0 11.56 c0 3.08 0.88 6 3.12 8.36 z M220.43999999999997 28.36 c0 -6.16 5.24 -11.52 11.96 -11.52 c6.68 0 11.92 5.36 11.92 11.52 c0 0.84 -0.08 1.64 -0.24 2.4 l-16.68 0.04 c0.88 1.8 2.72 3.08 5 3.08 c1.56 0 2.96 -0.64 3.92 -1.6 l7.28 0 c-1.64 4.36 -6 7.64 -11.2 7.64 c-6.72 0 -11.96 -5.2 -11.96 -11.4 l0 -0.16 z M227.59999999999997 25.6 l-0.2 0.56 l10.12 0 l-0.32 -0.56 c-0.96 -1.6 -2.68 -2.72 -4.8 -2.72 s-3.88 1.12 -4.8 2.72 z M244.6 16.88 l9.4 23.08 l6.24 0 l9.44 -23.08 l-7.16 0 l-5.4 14.32 l-5.36 -14.32 l-7.16 0 z M270.36 28.32 c0 6.28 5.32 11.68 12.08 11.68 c2.04 0 3.96 -0.44 5.72 -1.32 l0 1.32 l6.36 0 l-0.04 -23.12 l-6.48 0 l0 1.04 c-1.72 -0.84 -3.6 -1.24 -5.56 -1.24 c-6.76 0 -12.08 5.4 -12.08 11.64 z M286.44 32.28 c-1.08 1.04 -2.4 1.64 -4 1.64 c-3.16 0 -5.6 -2.64 -5.6 -5.6 c0 -2.92 2.44 -5.56 5.6 -5.56 c1.6 0 2.92 0.56 4 1.6 c0.68 0.68 1.56 2.12 1.56 2.96 l0 2.04 c0 0.84 -0.88 2.2 -1.56 2.92 z"/></g>
			</g>
		</svg>
	