
        <svg xmlns="http://www.w3.org/2000/svg" xmlns:xlink="http://www.w3.org/1999/xlink" version="1.1" width="3171.4285714285716" 
        height="1862.6210323725568" viewBox="0 0 3171.4285714285716 1862.6210323725568">
			
			<g transform="scale(8.571428571428571) translate(10, 10)">
				<defs id="SvgjsDefs2133"></defs><g id="SvgjsG2134" featureKey="1p4tPl-0" transform="matrix(1.6666396856307983,0,0,1.6666396856307983,91.72358056976495,-15.274470787330259)" fill="#ff0000"><g xmlns="http://www.w3.org/2000/svg"><path d="M86.834,90.834H33.166c-2.209,0-4-1.791-4-4V61.5c0-1.013,0.384-1.988,1.076-2.729l28.06-30.066l-8.326-9.499   l-32.81,36.819v30.809c0,2.209-1.791,4-4,4s-4-1.791-4-4V54.502c0-0.981,0.361-1.929,1.014-2.661l36.834-41.336   c0.763-0.856,1.816-1.368,3.002-1.339c1.147,0.005,2.236,0.501,2.992,1.363l36.834,42.02c0.64,0.729,0.992,1.667,0.992,2.637   v31.648C90.834,89.043,89.043,90.834,86.834,90.834z M37.166,82.834h45.668V56.69L63.602,34.75L37.166,63.076V82.834z"></path></g></g><g id="SvgjsG2135" featureKey="dYASrj-0" transform="matrix(2.892561912536621,0,0,2.892561912536621,-3.471074518093393,138.64462809917356)" fill="#ff0000"><path d="M14.7 6 c0.32 0 0.5 0.18 0.5 0.5 l0 13 c0 0.32 -0.18 0.5 -0.5 0.5 l-2.2 0 c-0.32 0 -0.5 -0.18 -0.5 -0.5 l0 -8.0828 l-2.54 6.0228 c-0.1 0.26 -0.3 0.38 -0.58 0.38 l-1.36 0 c-0.28 0 -0.48 -0.12 -0.58 -0.38 l-2.54 -6.0228 l0 8.0828 c0 0.32 -0.18 0.5 -0.5 0.5 l-2.2 0 c-0.32 0 -0.5 -0.18 -0.5 -0.5 l0 -13 c0 -0.32 0.18 -0.5 0.5 -0.5 l2.2 0 l0.48 0 c0.28 0 0.48 0.12 0.58 0.38 l3.24 7.7 l3.24 -7.7 c0.1 -0.26 0.3 -0.38 0.58 -0.38 l1.62 0 l1.06 0 z M18 8.8 c-0.32 0 -0.5 -0.18 -0.5 -0.5 l0 -1.8 c0 -0.32 0.18 -0.5 0.5 -0.5 l2 0 c0.32 0 0.5 0.18 0.5 0.5 l0 1.8 c0 0.32 -0.18 0.5 -0.5 0.5 l-2 0 z M18 20 c-0.32 0 -0.5 -0.18 -0.5 -0.5 l0 -9 c0 -0.32 0.18 -0.5 0.5 -0.5 l2 0 c0.32 0 0.5 0.18 0.5 0.5 l0 9 c0 0.32 -0.18 0.5 -0.5 0.5 l-2 0 z M31.659999999999997 19.4 c0.24 0.34 0.1 0.6 -0.3 0.6 l-2.28 0 c-0.26 0 -0.46 -0.1 -0.6 -0.32 l-2.78 -4.0658 l0 3.8858 c0 0.32 -0.18 0.5 -0.5 0.5 l-2 0 c-0.32 0 -0.5 -0.18 -0.5 -0.5 l0 -13 c0 -0.32 0.18 -0.5 0.5 -0.5 l2 0 c0.32 0 0.5 0.18 0.5 0.5 l0 7.8448 l2.58 -4.0248 c0.14 -0.22 0.34 -0.32 0.6 -0.32 l2.3 0 c0.4 0 0.54 0.26 0.32 0.6 l-2.94 4.4 z M37.339999999999996 9.72 c2.2 0 4.16 1.28 4.16 3.98 l0 5.8 c0 0.32 -0.18 0.5 -0.5 0.5 l-1.92 0 c-0.32 0 -0.5 -0.18 -0.5 -0.5 l0 -0.28561 c-0.5362 0.6276 -1.3234 1.0656 -2.58 1.0656 c-1.76 0 -3.3 -1.04 -3.3 -3.12 s1.54 -3.12 3.3 -3.12 c1.2566 0 2.0438 0.3546 2.58 0.76262 l0 -0.9026 c0 -0.98 -0.4 -1.42 -1.24 -1.42 c-0.62 0 -1 0.24 -1.16 0.58 c-0.12 0.28 -0.22 0.44 -0.52 0.44 l-1.96 0 c-0.32 0 -0.52 -0.18 -0.5 -0.52 c0.26 -2.16 2.1 -3.26 4.14 -3.26 z M37.059999999999995 18.16 c0.98 0 1.52 -0.42 1.52 -1 c0 -0.62 -0.54 -1 -1.52 -1 c-0.92 0 -1.36 0.42 -1.36 1 s0.44 1 1.36 1 z M46.13999999999999 13 c0 1.48 5.22 0.1 5.22 4 c0 2.3 -1.96 3.28 -4.16 3.28 c-2.04 0 -3.88 -0.92 -4.12 -3.04 c-0.04 -0.34 0.16 -0.52 0.48 -0.52 l1.96 0 c0.3 0 0.4 0.16 0.54 0.42 c0.16 0.34 0.54 0.54 1.14 0.54 c0.84 0 1.16 -0.28 1.16 -0.68 c0 -1.44 -5.22 -0.12 -5.22 -4 c0 -2.26 1.96 -3.28 4.06 -3.28 c1.86 0 3.68 0.92 3.92 3.04 c0.04 0.34 -0.16 0.52 -0.48 0.52 l-1.96 0 c-0.3 0 -0.4 -0.16 -0.54 -0.44 c-0.14 -0.32 -0.48 -0.52 -0.94 -0.52 c-0.74 0 -1.06 0.28 -1.06 0.68 z M57.3 9.72 c2.2 0 4.16 1.28 4.16 3.98 l0 5.8 c0 0.32 -0.18 0.5 -0.5 0.5 l-1.92 0 c-0.32 0 -0.5 -0.18 -0.5 -0.5 l0 -0.28561 c-0.5362 0.6276 -1.3234 1.0656 -2.58 1.0656 c-1.76 0 -3.3 -1.04 -3.3 -3.12 s1.54 -3.12 3.3 -3.12 c1.2566 0 2.0438 0.3546 2.58 0.76262 l0 -0.9026 c0 -0.98 -0.4 -1.42 -1.24 -1.42 c-0.62 0 -1 0.24 -1.16 0.58 c-0.12 0.28 -0.22 0.44 -0.52 0.44 l-1.96 0 c-0.32 0 -0.52 -0.18 -0.5 -0.52 c0.26 -2.16 2.1 -3.26 4.14 -3.26 z M57.019999999999996 18.16 c0.98 0 1.52 -0.42 1.52 -1 c0 -0.62 -0.54 -1 -1.52 -1 c-0.92 0 -1.36 0.42 -1.36 1 s0.44 1 1.36 1 z M75.89999999999999 6.5 c0 -0.32 0.18 -0.5 0.5 -0.5 l2.2 0 c0.32 0 0.5 0.18 0.5 0.5 l0 13 c0 0.32 -0.18 0.5 -0.5 0.5 l-1.5 0 c-0.26 0 -0.48 -0.1 -0.62 -0.32 l-4.78 -7.48 l0 7.3 c0 0.32 -0.18 0.5 -0.5 0.5 l-2.2 0 c-0.32 0 -0.5 -0.18 -0.5 -0.5 l0 -13 c0 -0.32 0.18 -0.5 0.5 -0.5 l1.5 0 c0.26 0 0.48 0.1 0.62 0.32 l4.78 7.48 l0 -7.3 z M89.44 10 c0.32 0 0.5 0.18 0.5 0.5 l0 9 c0 0.32 -0.18 0.5 -0.5 0.5 l-2 0 c-0.32 0 -0.5 -0.18 -0.5 -0.5 l0 -0.4134 c-0.47 0.695 -1.3214 1.1934 -2.6 1.1934 c-1.86 0 -3.2 -1.44 -3.2 -3.94 l0 -5.84 c0 -0.32 0.18 -0.5 0.5 -0.5 l2 0 c0.32 0 0.5 0.18 0.5 0.5 l0 5.58 c0 1 0.58 1.44 1.34 1.44 c0.9 0 1.46 -0.5 1.46 -1.68 l0 -5.34 c0 -0.32 0.18 -0.5 0.5 -0.5 l2 0 z M96.99999999999999 9.72 c2.92 0 5.04 2.26 5.04 5.28 c0 0.26 -0.02 0.5 -0.04 0.74 c-0.04 0.32 -0.24 0.46 -0.54 0.46 l-2.44 0 l-4.2388 0 c0.3634 1.1882 1.2966 1.66 2.3388 1.66 c0.56 0 1.12 -0.2 1.48 -0.5 c0.2 -0.16 0.36 -0.26 0.62 -0.26 l1.92 -0.02 c0.36 0 0.56 0.24 0.4 0.56 c-0.78 1.74 -2.42 2.64 -4.46 2.64 c-3.32 0 -5.44 -2.3 -5.44 -5.28 s2.2 -5.28 5.36 -5.28 z M94.76859999999999 13.92 l4.285 0 c-0.3092 -1.138 -1.1914 -1.54 -2.0736 -1.54 c-1.1244 0 -1.9024 0.5426 -2.2114 1.54 z M112.19999999999999 10 c0.36 0 0.52 0.22 0.4 0.58 l-3.26 9.02 c-0.1 0.26 -0.28 0.4 -0.56 0.4 l-1.68 0 l-0.48 0 c-0.28 0 -0.46 -0.14 -0.56 -0.4 l-3.26 -9.02 c-0.12 -0.36 0.06 -0.58 0.42 -0.58 l2.14 0 c0.28 0 0.48 0.14 0.56 0.42 l1.78 5.7342 l1.78 -5.7342 c0.08 -0.28 0.28 -0.42 0.56 -0.42 l2.16 0 z M118.03999999999999 9.72 c2.2 0 4.16 1.28 4.16 3.98 l0 5.8 c0 0.32 -0.18 0.5 -0.5 0.5 l-1.92 0 c-0.32 0 -0.5 -0.18 -0.5 -0.5 l0 -0.28561 c-0.5362 0.6276 -1.3234 1.0656 -2.58 1.0656 c-1.76 0 -3.3 -1.04 -3.3 -3.12 s1.54 -3.12 3.3 -3.12 c1.2566 0 2.0438 0.3546 2.58 0.76262 l0 -0.9026 c0 -0.98 -0.4 -1.42 -1.24 -1.42 c-0.62 0 -1 0.24 -1.16 0.58 c-0.12 0.28 -0.22 0.44 -0.52 0.44 l-1.96 0 c-0.32 0 -0.52 -0.18 -0.5 -0.52 c0.26 -2.16 2.1 -3.26 4.14 -3.26 z M117.75999999999999 18.16 c0.98 0 1.52 -0.42 1.52 -1 c0 -0.62 -0.54 -1 -1.52 -1 c-0.92 0 -1.36 0.42 -1.36 1 s0.44 1 1.36 1 z"></path></g>
			</g>
		</svg>
	