<?xml version='1.0' encoding='iso-8859-1'?>
<!DOCTYPE svg PUBLIC '-//W3C//DTD SVG 1.1//EN' 'http://www.w3.org/Graphics/SVG/1.1/DTD/svg11.dtd'>
<svg version="1.1" xmlns="http://www.w3.org/2000/svg" viewBox="0 0 297 297" xmlns:xlink="http://www.w3.org/1999/xlink" enable-background="new 0 0 297 297">
  <g>
    <path d="m251.189,274.558c0,3.692 2.993,6.686 6.685,6.686h32.441c3.691,0 6.685-2.993 6.685-6.686v-198.16h-45.811v198.16z"/>
    <path d="m290.315,15.757h-283.63c-3.692,0-6.685,2.993-6.685,6.685v40.587h297v-40.587c0-3.692-2.993-6.685-6.685-6.685z"/>
    <path d="m192.884,176.588c-4.036-1.952-8.891-0.265-10.844,3.77-1.953,4.035-0.265,8.891 3.771,10.844 5.522,2.673 7.843,9.34 5.17,14.861-1.952,4.036-0.264,8.89 3.771,10.843 1.14,0.551 2.344,0.813 3.53,0.813 3.016,0 5.911-1.688 7.313-4.584 6.571-13.579 0.868-29.975-12.711-36.547z"/>
    <path d="m203.775,156.95c-4.036-1.952-8.891-0.265-10.843,3.771-1.953,4.035-0.264,8.891 3.771,10.843 7.766,3.757 13.604,10.314 16.438,18.463 2.834,8.148 2.325,16.91-1.433,24.675-1.953,4.036-0.265,8.89 3.77,10.844 1.14,0.551 2.344,0.813 3.53,0.813 3.015,0 5.911-1.688 7.313-4.583 5.648-11.669 6.412-24.838 2.153-37.082-4.257-12.245-13.029-22.097-24.699-27.744z"/>
    <path d="m163.751,176.948c-0.582-1.674-1.807-3.049-3.402-3.821-1.597-0.772-3.433-0.879-5.107-0.296l-87.724,30.513c-3.487,1.212-5.331,5.022-4.117,8.51l18.776,53.983c0.582,1.674 1.807,3.049 3.402,3.821 0.917,0.443 1.913,0.668 2.912,0.668 0.74,0 1.482-0.123 2.195-0.372l87.724-30.513c3.487-1.212 5.331-5.023 4.118-8.51l-18.777-53.983zm-49.416,56.637l-13.871-2.555c-1.874-0.344-2.381-1.8-1.125-3.233l9.293-10.609c1.256-1.434 2.793-1.135 3.419,0.665l4.554,13.088c0.624,1.799-0.396,2.988-2.27,2.644zm32.254-18.597l-9.294,10.61c-1.257,1.433-2.794,1.134-3.42-0.666l-4.553-13.087c-0.626-1.8 0.396-2.989 2.269-2.645l13.873,2.553c1.874,0.346 2.381,1.802 1.125,3.235z"/>
    <path d="M0,274.558c0,3.692,2.993,6.686,6.685,6.686h32.441c3.692,0,6.686-2.993,6.686-6.686V76.398H0V274.558z"/>
    <path d="m231.584,111.961h-166.168c-2.626,0-4.774,2.148-4.774,4.774v12.643c0,2.626 2.148,4.775 4.774,4.775h166.168c2.626,0 4.774-2.149 4.774-4.775v-12.643c0-2.626-2.148-4.774-4.774-4.774z"/>
    <path d="m231.584,76.398h-166.168c-2.626,0-4.774,2.149-4.774,4.775v12.643c0,2.626 2.148,4.774 4.774,4.774h166.168c2.626,0 4.774-2.148 4.774-4.774v-12.642c0-2.626-2.148-4.776-4.774-4.776z"/>
  </g>
</svg>
