<?xml version='1.0' encoding='iso-8859-1'?>
<!DOCTYPE svg PUBLIC '-//W3C//DTD SVG 1.1//EN' 'http://www.w3.org/Graphics/SVG/1.1/DTD/svg11.dtd'>
<svg version="1.1" xmlns="http://www.w3.org/2000/svg" viewBox="0 0 297 297" xmlns:xlink="http://www.w3.org/1999/xlink" enable-background="new 0 0 297 297">
  <g>
    <path d="m182.68,66.248c2.54,0 5.081-0.969 7.018-2.908 3.875-3.875 3.875-10.159-0.002-14.035-22.714-22.713-59.677-22.713-82.394,0-3.876,3.875-3.876,10.16-0.001,14.035 3.874,3.877 10.16,3.877 14.036,0.002 14.978-14.977 39.347-14.975 54.324,0 1.939,1.937 4.479,2.906 7.019,2.906z"/>
    <path d="m100.934,39.554c12.705-12.706 29.599-19.703 47.568-19.703 17.97,0 34.861,6.997 47.565,19.703 1.938,1.938 4.478,2.907 7.019,2.907 2.539,0 5.079-0.969 7.017-2.906 3.876-3.875 3.877-10.159 0.001-14.035-16.453-16.457-38.33-25.52-61.602-25.52-23.272,0-45.15,9.063-61.604,25.52-3.876,3.876-3.876,10.159 0.001,14.035 3.874,3.877 10.16,3.876 14.035-0.001z"/>
    <polygon points="136.578,164.977 160.419,164.977 148.5,144.006  "/>
    <path d="m203.087,88.827h-109.174c-5.48,0-9.925,4.443-9.925,9.925v188.324c0,5.48 4.444,9.924 9.925,9.924h109.174c5.48,0 9.925-4.443 9.925-9.924v-188.324c0-5.481-4.445-9.925-9.925-9.925zm-28.617,135.427l-16.003,28.154c-2.298,4.045-5.931,6.366-9.968,6.366-4.04,0-7.674-2.323-9.97-6.374l-16-28.146c-2.284-4.021-2.431-8.325-0.401-11.81 2.027-3.484 5.842-5.482 10.465-5.482h31.815c4.624,0 8.438,1.998 10.466,5.483 2.027,3.485 1.88,7.789-0.404,11.809zm.404-50.864c-2.029,3.484-5.843,5.483-10.466,5.483h-31.815c-4.622,0-8.437-1.999-10.465-5.482-2.029-3.484-1.883-7.789 0.398-11.809l16.007-28.16c2.292-4.044 5.925-6.368 9.966-6.368 4.037,0 7.67,2.322 9.97,6.371l16.001,28.154c2.284,4.021 2.431,8.325 0.404,11.811z"/>
    <polygon points="148.5,241.824 160.417,220.856 136.58,220.856  "/>
    <path d="m131.867,73.869c-1.431,1.43-2.329,3.188-2.704,5.033h38.674c-0.375-1.845-1.273-3.604-2.704-5.033-9.171-9.171-24.095-9.171-33.266,0z"/>
  </g>
</svg>
